<?xml version="1.0" standalone="no"?>
<!DOCTYPE svg PUBLIC "-//W3C//DTD SVG 20010904//EN"
 "http://www.w3.org/TR/2001/REC-SVG-20010904/DTD/svg10.dtd">
<svg version="1.0" xmlns="http://www.w3.org/2000/svg"
 width="512.000000pt" height="512.000000pt" viewBox="0 0 512.000000 512.000000"
 preserveAspectRatio="xMidYMid meet">
<metadata>
Created by potrace 1.14, written by Peter Selinger 2001-2017
</metadata>
<g transform="translate(0.000000,512.000000) scale(0.100000,-0.100000)"
fill="#000000" stroke="none">
<path d="M2358 5065 c-2 -2 -34 -6 -72 -10 -90 -8 -138 -14 -156 -20 -8 -2
-35 -7 -59 -10 -36 -5 -235 -54 -276 -68 -5 -2 -29 -9 -52 -16 -80 -22 -268
-102 -380 -161 -214 -112 -389 -237 -576 -412 -28 -27 -58 -49 -67 -49 -8 -1
-25 -1 -38 -2 -26 0 -27 -5 -6 -28 15 -16 13 -20 -14 -51 -55 -60 -74 -82
-120 -143 -25 -33 -49 -62 -52 -65 -23 -21 -137 -206 -198 -321 -69 -131 -169
-376 -187 -463 -3 -10 -11 -42 -19 -70 -17 -60 -45 -194 -52 -251 -3 -22 -7
-51 -10 -65 -24 -139 -24 -488 1 -655 3 -16 7 -46 9 -65 5 -31 18 -100 30
-155 49 -229 173 -544 280 -713 14 -23 26 -44 26 -48 0 -17 141 -209 265 -361
9 -11 187 -189 219 -219 143 -133 449 -333 626 -408 25 -11 65 -28 90 -39 89
-39 308 -108 389 -124 14 -2 28 -6 32 -9 4 -2 27 -7 51 -10 24 -3 59 -9 78
-14 19 -5 69 -12 110 -15 41 -4 84 -9 95 -12 30 -6 364 -6 415 1 25 3 70 8
100 11 49 5 89 11 195 31 17 3 65 14 108 25 440 112 823 323 1141 629 l98 95
55 -2 54 -1 -18 21 c-10 12 -22 25 -27 28 -11 8 -6 15 75 119 312 397 498 873
536 1370 12 148 5 418 -12 521 -40 239 -64 344 -114 491 -59 175 -156 379
-254 533 -56 89 -193 271 -244 325 -35 38 -39 45 -23 55 19 12 10 25 -19 25
-22 0 -44 14 -88 56 -234 226 -477 389 -763 514 -63 27 -122 50 -130 50 -9 0
-20 4 -25 9 -25 24 -371 109 -510 126 -27 3 -66 8 -85 12 -34 6 -427 13 -432
8z m370 -419 c260 -25 518 -99 751 -216 92 -46 231 -127 231 -134 0 -2 -138
-2 -307 0 -170 1 -690 5 -1158 9 -467 3 -851 8 -853 9 -4 5 85 59 168 103 124
65 349 152 439 169 14 3 27 7 31 9 16 10 254 46 340 51 52 4 96 7 97 8 5 4
199 -3 261 -8z m-213 -690 c341 -3 738 -5 883 -6 144 -1 262 -4 262 -8 0 -4
-17 -25 -38 -47 -20 -22 -67 -74 -102 -115 -36 -41 -69 -80 -75 -86 -5 -6 -39
-44 -75 -84 -36 -40 -70 -78 -76 -84 -5 -6 -59 -67 -119 -136 -60 -69 -112
-127 -115 -130 -3 -3 -37 -41 -75 -85 -78 -88 -76 -86 -125 -141 -19 -22 -69
-77 -110 -124 -41 -47 -87 -98 -102 -115 -14 -16 -36 -41 -48 -55 -14 -16 -24
-20 -28 -13 -4 6 -45 52 -92 103 -47 51 -92 100 -100 110 -8 9 -58 64 -110
120 -52 56 -102 110 -110 120 -18 20 -171 187 -219 239 -18 20 -68 74 -110
120 -42 47 -85 94 -96 107 -11 12 -60 66 -110 119 -49 54 -94 103 -100 110 -5
6 -27 29 -47 51 l-38 39 228 -2 c125 -1 506 -4 847 -7z m-1494 -43 c25 -27 90
-97 144 -158 55 -60 107 -117 115 -125 28 -30 195 -213 211 -231 9 -11 59 -65
110 -121 104 -113 108 -116 222 -243 45 -49 111 -121 147 -160 61 -66 233
-254 255 -279 6 -7 34 -38 64 -70 l54 -58 -114 -110 c-201 -193 -499 -481
-574 -553 -40 -38 -163 -158 -275 -265 -111 -107 -231 -222 -265 -255 -34 -33
-84 -82 -112 -108 l-50 -49 -62 76 c-177 216 -342 538 -403 786 -23 95 -48
225 -53 282 -4 35 -9 74 -11 88 -5 33 -5 292 0 350 37 402 172 761 405 1080
30 41 61 81 68 88 7 8 25 29 39 48 15 19 30 34 34 34 3 0 27 -21 51 -47z
m3206 -105 c176 -231 326 -561 379 -832 34 -177 39 -230 39 -446 0 -214 -2
-239 -36 -410 -40 -199 -112 -402 -205 -577 -41 -78 -189 -301 -234 -353 l-30
-34 -343 341 c-188 188 -485 483 -659 656 l-316 314 60 69 c34 38 86 98 117
133 31 35 61 69 67 75 6 6 48 54 94 106 45 52 110 125 142 162 33 37 68 76 77
86 27 32 135 153 156 176 11 13 34 38 50 57 159 181 190 216 260 294 17 19 70
79 148 169 10 12 43 49 73 83 l55 62 28 -32 c15 -18 50 -62 78 -99z m-591
-2647 c-3 -4 -107 -5 -233 -4 -712 6 -1430 12 -1653 13 l-255 0 95 91 c52 51
161 155 241 233 163 158 502 485 653 629 l98 95 529 -526 c291 -289 527 -528
525 -531z m-756 -346 c476 -4 866 -8 868 -10 6 -6 -183 -119 -276 -165 -87
-43 -244 -108 -275 -114 -7 -1 -43 -12 -82 -24 -69 -21 -191 -49 -250 -57
-118 -16 -180 -20 -330 -20 -213 0 -307 10 -481 50 -169 40 -363 112 -504 187
-68 37 -207 122 -239 147 -28 21 -226 20 1569 6z"/>
</g>
</svg>
